<mxfile host="app.diagrams.net" modified="2023-06-07T17:26:57.874Z" agent="Mozilla/5.0 (Macintosh; Intel Mac OS X 10_15_7) AppleWebKit/537.36 (KHTML, like Gecko) Chrome/114.0.0.0 Safari/537.36" etag="ZXA-zpExzvQCqN3pG1tZ" version="21.3.7" type="github">
  <diagram name="Page-1" id="6fULGBOfZkSColBy7_jW">
    <mxGraphModel dx="1307" dy="1938" grid="1" gridSize="10" guides="1" tooltips="1" connect="1" arrows="1" fold="1" page="1" pageScale="1" pageWidth="850" pageHeight="1100" math="0" shadow="0">
      <root>
        <mxCell id="0" />
        <mxCell id="1" parent="0" />
        <mxCell id="6vhaoTvWoq1fCFVQ0RX1-5" value="&lt;b&gt;&lt;font style=&quot;font-size: 19px;&quot;&gt;MARSHA&lt;/font&gt;&lt;/b&gt;&lt;br&gt;(main frame for reservation)" style="rounded=1;whiteSpace=wrap;html=1;" vertex="1" parent="1">
          <mxGeometry x="190" y="20" width="190" height="90" as="geometry" />
        </mxCell>
        <mxCell id="6vhaoTvWoq1fCFVQ0RX1-7" style="edgeStyle=orthogonalEdgeStyle;rounded=0;orthogonalLoop=1;jettySize=auto;html=1;" edge="1" parent="1" source="6vhaoTvWoq1fCFVQ0RX1-6">
          <mxGeometry relative="1" as="geometry">
            <mxPoint x="620" y="630" as="targetPoint" />
          </mxGeometry>
        </mxCell>
        <mxCell id="6vhaoTvWoq1fCFVQ0RX1-6" value="&lt;span style=&quot;font-size: 19px;&quot;&gt;&lt;b&gt;marriott.com&lt;/b&gt;&lt;/span&gt;" style="rounded=1;whiteSpace=wrap;html=1;" vertex="1" parent="1">
          <mxGeometry x="290" y="560" width="210" height="140" as="geometry" />
        </mxCell>
        <mxCell id="6vhaoTvWoq1fCFVQ0RX1-9" value="search" style="edgeStyle=orthogonalEdgeStyle;rounded=0;orthogonalLoop=1;jettySize=auto;html=1;" edge="1" parent="1" source="6vhaoTvWoq1fCFVQ0RX1-8" target="6vhaoTvWoq1fCFVQ0RX1-6">
          <mxGeometry relative="1" as="geometry" />
        </mxCell>
        <mxCell id="6vhaoTvWoq1fCFVQ0RX1-8" value="Actor" style="shape=umlActor;verticalLabelPosition=bottom;verticalAlign=top;html=1;outlineConnect=0;" vertex="1" parent="1">
          <mxGeometry x="40" y="600" width="30" height="60" as="geometry" />
        </mxCell>
        <mxCell id="6vhaoTvWoq1fCFVQ0RX1-10" value="&lt;div style=&quot;text-align: left;&quot;&gt;&lt;span style=&quot;font-size: 14px; background-color: initial;&quot;&gt;&lt;u&gt;&lt;b&gt;Restful services&lt;/b&gt;&lt;/u&gt;&lt;/span&gt;&lt;/div&gt;&lt;div style=&quot;text-align: left;&quot;&gt;&lt;span style=&quot;font-size: 14px; background-color: initial;&quot;&gt;1. Endeca call - gets properties for given location (rest call)&lt;/span&gt;&lt;/div&gt;&lt;span style=&quot;font-size: 14px;&quot;&gt;&lt;div style=&quot;text-align: left;&quot;&gt;&lt;span style=&quot;background-color: initial;&quot;&gt;2. MPA - Check for multiple property available in mainframe (soap)&lt;/span&gt;&lt;/div&gt;&lt;div style=&quot;text-align: left;&quot;&gt;&lt;span style=&quot;background-color: initial;&quot;&gt;&lt;br&gt;&lt;/span&gt;&lt;/div&gt;&lt;div style=&quot;text-align: left;&quot;&gt;&lt;span style=&quot;background-color: initial;&quot;&gt;APACHE CAMEL&lt;/span&gt;&lt;/div&gt;&lt;div style=&quot;text-align: left;&quot;&gt;&lt;span style=&quot;background-color: initial;&quot;&gt;- is used for async processing&lt;/span&gt;&lt;/div&gt;&lt;div style=&quot;text-align: left;&quot;&gt;- completionStage at the end is used to respond back&amp;nbsp;&lt;/div&gt;&lt;/span&gt;" style="rounded=1;whiteSpace=wrap;html=1;" vertex="1" parent="1">
          <mxGeometry x="620" y="560" width="470" height="200" as="geometry" />
        </mxCell>
        <mxCell id="6vhaoTvWoq1fCFVQ0RX1-11" value="" style="group" vertex="1" connectable="0" parent="1">
          <mxGeometry x="140" y="260" width="820" height="230" as="geometry" />
        </mxCell>
        <mxCell id="6vhaoTvWoq1fCFVQ0RX1-4" value="" style="rounded=0;whiteSpace=wrap;html=1;" vertex="1" parent="6vhaoTvWoq1fCFVQ0RX1-11">
          <mxGeometry width="820" height="230" as="geometry" />
        </mxCell>
        <mxCell id="6vhaoTvWoq1fCFVQ0RX1-1" value="&lt;font style=&quot;font-size: 19px;&quot;&gt;Property&lt;/font&gt;&lt;br&gt;&lt;br&gt;&lt;div&gt;V2/properties/{:id}/basic-information&amp;nbsp;&lt;/div&gt;&lt;div&gt;V2/brands/{id}/description&amp;nbsp;&lt;/div&gt;" style="rounded=1;whiteSpace=wrap;html=1;" vertex="1" parent="6vhaoTvWoq1fCFVQ0RX1-11">
          <mxGeometry x="270" y="45" width="230" height="90" as="geometry" />
        </mxCell>
        <mxCell id="6vhaoTvWoq1fCFVQ0RX1-2" value="&lt;b&gt;&lt;font style=&quot;font-size: 19px;&quot;&gt;Reservation&lt;/font&gt;&lt;/b&gt;&lt;br&gt;&lt;br&gt;&lt;br&gt;&lt;div&gt;V2/queries/products&amp;nbsp;&lt;/div&gt;&lt;div&gt;V2/cart&amp;nbsp;&lt;/div&gt;&lt;div&gt;&lt;span style=&quot;background-color: initial;&quot;&gt;V2/trip&amp;nbsp;&lt;/span&gt;&lt;br&gt;&lt;/div&gt;&lt;div&gt;&lt;span style=&quot;background-color: initial;&quot;&gt;&lt;br&gt;&lt;/span&gt;&lt;/div&gt;&lt;div&gt;&lt;span style=&quot;background-color: initial;&quot;&gt;These APIs talk to MARSHA&lt;/span&gt;&lt;/div&gt;" style="rounded=1;whiteSpace=wrap;html=1;" vertex="1" parent="6vhaoTvWoq1fCFVQ0RX1-11">
          <mxGeometry x="40" y="45" width="210" height="140" as="geometry" />
        </mxCell>
        <mxCell id="6vhaoTvWoq1fCFVQ0RX1-3" value="&lt;font style=&quot;font-size: 19px;&quot;&gt;Rewards&lt;/font&gt;&lt;br&gt;&lt;br&gt;&lt;div&gt;V2/customer/{id}/savedItems&amp;nbsp;&lt;/div&gt;&lt;div&gt;V2/customer/{id}/profile&amp;nbsp;&lt;/div&gt;&lt;div&gt;&lt;br&gt;&lt;/div&gt;&lt;div&gt;(SOAP based DB2 service)&lt;/div&gt;" style="rounded=1;whiteSpace=wrap;html=1;" vertex="1" parent="6vhaoTvWoq1fCFVQ0RX1-11">
          <mxGeometry x="590" y="45" width="220" height="125" as="geometry" />
        </mxCell>
        <mxCell id="6vhaoTvWoq1fCFVQ0RX1-19" value="" style="edgeStyle=orthogonalEdgeStyle;rounded=0;orthogonalLoop=1;jettySize=auto;html=1;" edge="1" parent="1" source="6vhaoTvWoq1fCFVQ0RX1-15" target="6vhaoTvWoq1fCFVQ0RX1-18">
          <mxGeometry relative="1" as="geometry" />
        </mxCell>
        <mxCell id="6vhaoTvWoq1fCFVQ0RX1-15" value="These were legacy restful services. JARs or VARs and we&#39;ve been converting to microservices" style="text;html=1;strokeColor=none;fillColor=none;align=center;verticalAlign=middle;whiteSpace=wrap;rounded=0;" vertex="1" parent="1">
          <mxGeometry x="960" y="190" width="220" height="50" as="geometry" />
        </mxCell>
        <mxCell id="6vhaoTvWoq1fCFVQ0RX1-18" value="&lt;div&gt;&lt;font style=&quot;font-size: 16px;&quot;&gt;Reservation bundle for inquiry&amp;nbsp;&lt;/font&gt;&lt;/div&gt;&lt;div&gt;&lt;ol&gt;&lt;li&gt;Property Content Bundle&amp;nbsp;&lt;/li&gt;&lt;li&gt;Rewards inquiry bundle&amp;nbsp;&lt;/li&gt;&lt;li&gt;Customer profile bundle&amp;nbsp;&lt;/li&gt;&lt;/ol&gt;&lt;/div&gt;" style="whiteSpace=wrap;html=1;" vertex="1" parent="1">
          <mxGeometry x="1040" y="350" width="330" height="85" as="geometry" />
        </mxCell>
        <mxCell id="6vhaoTvWoq1fCFVQ0RX1-20" value="&lt;span style=&quot;font-size: 19px;&quot;&gt;&lt;b&gt;LOYALTY SOAP Service&lt;/b&gt;&lt;/span&gt;" style="rounded=1;whiteSpace=wrap;html=1;" vertex="1" parent="1">
          <mxGeometry x="750" y="30" width="170" height="110" as="geometry" />
        </mxCell>
        <mxCell id="6vhaoTvWoq1fCFVQ0RX1-32" style="edgeStyle=orthogonalEdgeStyle;rounded=0;orthogonalLoop=1;jettySize=auto;html=1;" edge="1" parent="1" source="6vhaoTvWoq1fCFVQ0RX1-21">
          <mxGeometry relative="1" as="geometry">
            <mxPoint x="520" y="-20" as="targetPoint" />
          </mxGeometry>
        </mxCell>
        <mxCell id="6vhaoTvWoq1fCFVQ0RX1-21" value="&lt;span style=&quot;font-size: 19px;&quot;&gt;&lt;b&gt;EPIC&lt;/b&gt;&lt;/span&gt;" style="rounded=1;whiteSpace=wrap;html=1;" vertex="1" parent="1">
          <mxGeometry x="460" y="40" width="140" height="70" as="geometry" />
        </mxCell>
        <mxCell id="6vhaoTvWoq1fCFVQ0RX1-28" style="edgeStyle=orthogonalEdgeStyle;rounded=0;orthogonalLoop=1;jettySize=auto;html=1;entryX=0.5;entryY=1;entryDx=0;entryDy=0;" edge="1" parent="1" source="6vhaoTvWoq1fCFVQ0RX1-2" target="6vhaoTvWoq1fCFVQ0RX1-5">
          <mxGeometry relative="1" as="geometry" />
        </mxCell>
        <mxCell id="6vhaoTvWoq1fCFVQ0RX1-29" style="edgeStyle=orthogonalEdgeStyle;rounded=0;orthogonalLoop=1;jettySize=auto;html=1;entryX=0.442;entryY=0.991;entryDx=0;entryDy=0;entryPerimeter=0;" edge="1" parent="1" source="6vhaoTvWoq1fCFVQ0RX1-1" target="6vhaoTvWoq1fCFVQ0RX1-21">
          <mxGeometry relative="1" as="geometry" />
        </mxCell>
        <mxCell id="6vhaoTvWoq1fCFVQ0RX1-30" style="edgeStyle=orthogonalEdgeStyle;rounded=0;orthogonalLoop=1;jettySize=auto;html=1;entryX=0.5;entryY=1;entryDx=0;entryDy=0;" edge="1" parent="1" source="6vhaoTvWoq1fCFVQ0RX1-3" target="6vhaoTvWoq1fCFVQ0RX1-20">
          <mxGeometry relative="1" as="geometry" />
        </mxCell>
        <mxCell id="6vhaoTvWoq1fCFVQ0RX1-31" value="DB2" style="shape=cylinder3;whiteSpace=wrap;html=1;boundedLbl=1;backgroundOutline=1;size=15;" vertex="1" parent="1">
          <mxGeometry x="490" y="-110" width="60" height="80" as="geometry" />
        </mxCell>
      </root>
    </mxGraphModel>
  </diagram>
</mxfile>
